<svg xmlns="http://www.w3.org/2000/svg" xmlns:xlink="http://www.w3.org/1999/xlink" viewBox="0 0 60.36 60.36"><defs><style>.cls-1{fill:url(#linear-gradient);}.cls-2{fill:#b3b4b7;}.cls-3{fill:url(#linear-gradient-2);}.cls-4{fill:#74cee0;}</style><linearGradient id="linear-gradient" x1="13.66" y1="5" x2="28.32" y2="40.21" gradientUnits="userSpaceOnUse"><stop offset="0" stop-color="#fff"/><stop offset="1" stop-color="#d4d6d7"/></linearGradient><linearGradient id="linear-gradient-2" x1="34.5" y1="38.1" x2="10.54" y2="8.26" gradientUnits="userSpaceOnUse"><stop offset="0" stop-color="#fff"/><stop offset="1" stop-color="#b9babc"/></linearGradient><symbol id="Bullet_6_-_Grey" data-name="Bullet 6 - Grey" viewBox="0 0 39.69 39.68"><path class="cls-1" d="M19.84,39.43A19.59,19.59,0,1,1,39.43,19.84,19.61,19.61,0,0,1,19.84,39.43Z"/><path class="cls-2" d="M19.84.5A19.34,19.34,0,1,1,.5,19.84,19.37,19.37,0,0,1,19.84.5m0-.5A19.84,19.84,0,1,0,39.69,19.84,19.84,19.84,0,0,0,19.84,0Z"/><path class="cls-3" d="M37.34,19.84a17.5,17.5,0,1,1-17.5-17.5A17.49,17.49,0,0,1,37.34,19.84Z"/><path class="cls-4" d="M34.84,19.84a15,15,0,1,1-15-15A15,15,0,0,1,34.84,19.84Z"/></symbol></defs><title>Asset 1</title><g id="Layer_2" data-name="Layer 2"><g id="Layer_1-2" data-name="Layer 1"><use id="Bullet_6_-_Grey-3" data-name="Bullet 6 - Grey" width="39.69" height="39.68" transform="scale(1.52)" xlink:href="#Bullet_6_-_Grey"/></g></g></svg>