<svg xmlns="http://www.w3.org/2000/svg" xmlns:xlink="http://www.w3.org/1999/xlink" viewBox="0 0 500.4 313.41"><defs><style>.cls-1{mix-blend-mode:multiply;fill:url(#linear-gradient);}.cls-2{fill:url(#linear-gradient-2);}.cls-24,.cls-3{fill:none;stroke-miterlimit:10;}.cls-3{stroke:#fff;stroke-width:1.26px;}.cls-4{font-size:34.69px;font-family:TrajanPro3-Regular, Trajan Pro 3;letter-spacing:0em;}.cls-25,.cls-4{fill:#fff;}.cls-5{letter-spacing:-0.04em;}.cls-6{letter-spacing:-0.02em;}.cls-7{letter-spacing:-0.02em;}.cls-8{letter-spacing:-0.05em;}.cls-9{letter-spacing:-0.04em;}.cls-10{letter-spacing:0em;}.cls-11{letter-spacing:0.03em;}.cls-12{letter-spacing:0.02em;}.cls-13{letter-spacing:-0.04em;}.cls-14{letter-spacing:0.05em;}.cls-15{letter-spacing:-0.05em;}.cls-16{letter-spacing:-0.05em;}.cls-17{letter-spacing:-0.02em;}.cls-18{letter-spacing:-0.04em;}.cls-19{letter-spacing:0em;}.cls-20{fill:#74cee0;}.cls-21{mask:url(#mask);}.cls-22{fill:url(#linear-gradient-3);}.cls-23{mask:url(#mask-2);}.cls-24{stroke:#231f20;}</style><linearGradient id="linear-gradient" x1="727.69" y1="-183.86" x2="591.63" y2="-231.29" gradientTransform="translate(-1676.48 232.25) scale(2.92 0.73)" gradientUnits="userSpaceOnUse"><stop offset="0.25" stop-color="#fff"/><stop offset="0.26" stop-color="#e5e5e5"/><stop offset="0.27" stop-color="#bdbcbc"/><stop offset="0.28" stop-color="#989697"/><stop offset="0.29" stop-color="#787676"/><stop offset="0.31" stop-color="#5d5a5b"/><stop offset="0.33" stop-color="#484445"/><stop offset="0.35" stop-color="#373334"/><stop offset="0.37" stop-color="#2c2829"/><stop offset="0.4" stop-color="#252122"/><stop offset="0.5" stop-color="#231f20"/><stop offset="0.6" stop-color="#252122"/><stop offset="0.63" stop-color="#2c2829"/><stop offset="0.65" stop-color="#373334"/><stop offset="0.67" stop-color="#484445"/><stop offset="0.69" stop-color="#5d5a5b"/><stop offset="0.71" stop-color="#787676"/><stop offset="0.72" stop-color="#989697"/><stop offset="0.73" stop-color="#bdbcbc"/><stop offset="0.74" stop-color="#e5e5e5"/><stop offset="0.75" stop-color="#fff"/></linearGradient><linearGradient id="linear-gradient-2" x1="305.45" y1="179.52" x2="193.34" y2="-14.65" gradientUnits="userSpaceOnUse"><stop offset="0" stop-color="#fff"/><stop offset="0.01" stop-color="#e5e5e5"/><stop offset="0.03" stop-color="#bdbcbc"/><stop offset="0.06" stop-color="#989697"/><stop offset="0.09" stop-color="#787676"/><stop offset="0.12" stop-color="#5d5a5b"/><stop offset="0.15" stop-color="#484445"/><stop offset="0.19" stop-color="#373334"/><stop offset="0.24" stop-color="#2c2829"/><stop offset="0.31" stop-color="#252122"/><stop offset="0.5" stop-color="#231f20"/><stop offset="0.69" stop-color="#252122"/><stop offset="0.76" stop-color="#2c2829"/><stop offset="0.81" stop-color="#373334"/><stop offset="0.85" stop-color="#484445"/><stop offset="0.88" stop-color="#5d5a5b"/><stop offset="0.91" stop-color="#787676"/><stop offset="0.94" stop-color="#989697"/><stop offset="0.97" stop-color="#bdbcbc"/><stop offset="0.99" stop-color="#e5e5e5"/><stop offset="1" stop-color="#fff"/></linearGradient><mask id="mask" x="154.16" y="-11.2" width="192.06" height="182.61" maskUnits="userSpaceOnUse"><rect class="cls-1" x="154.16" y="-11.2" width="192.06" height="182.61"/></mask><linearGradient id="linear-gradient-3" x1="167.96" y1="82.43" x2="332.82" y2="82.43" gradientUnits="userSpaceOnUse"><stop offset="0" stop-color="#56bfed"/><stop offset="0.22" stop-color="#fff"/><stop offset="0.23" stop-color="#e9f8fd"/><stop offset="0.25" stop-color="#c1eafa"/><stop offset="0.27" stop-color="#9ddef6"/><stop offset="0.29" stop-color="#7fd4f4"/><stop offset="0.32" stop-color="#67cbf2"/><stop offset="0.35" stop-color="#54c5f0"/><stop offset="0.38" stop-color="#47c0ef"/><stop offset="0.43" stop-color="#3fbeee"/><stop offset="0.52" stop-color="#3dbdee"/><stop offset="0.58" stop-color="#40beee"/><stop offset="0.63" stop-color="#4ac1ef"/><stop offset="0.68" stop-color="#5bc7f1"/><stop offset="0.72" stop-color="#73cff3"/><stop offset="0.77" stop-color="#92daf5"/><stop offset="0.81" stop-color="#b8e7f9"/><stop offset="0.84" stop-color="#e3f6fd"/><stop offset="0.87" stop-color="#fff"/><stop offset="0.88" stop-color="#f9feff"/><stop offset="0.9" stop-color="#e9fafe"/><stop offset="0.91" stop-color="#cef3fd"/><stop offset="0.93" stop-color="#a8eafb"/><stop offset="0.96" stop-color="#78dff9"/><stop offset="0.98" stop-color="#3dd1f6"/><stop offset="1" stop-color="#00c2f3"/></linearGradient><mask id="mask-2" x="167.96" y="0" width="163.37" height="164.87" maskUnits="userSpaceOnUse"><rect class="cls-2" x="167.96" width="162.87" height="164.87"/></mask></defs><title>Asset 2</title><g id="Layer_2" data-name="Layer 2"><g id="Layer_1-2" data-name="Layer 1"><line class="cls-3" x1="1.56" y1="185.02" x2="498.82" y2="185.02"/><line class="cls-3" x1="1.56" y1="243.13" x2="498.82" y2="243.13"/><text class="cls-4" transform="translate(0 226.25)">M<tspan class="cls-5" x="36.51" y="0">E</tspan><tspan class="cls-6" x="56.17" y="0">R</tspan><tspan class="cls-7" x="81.62" y="0">C</tspan><tspan class="cls-5" x="108.74" y="0">E</tspan><tspan class="cls-8" x="128.4" y="0">D</tspan><tspan class="cls-9" x="158.36" y="0">E</tspan><tspan class="cls-10" x="178.3" y="0">S </tspan><tspan class="cls-11" x="209.34" y="0">H</tspan><tspan class="cls-12" x="243.65" y="0">A</tspan><tspan class="cls-13" x="268.63" y="0">I</tspan><tspan class="cls-14" x="282.45" y="0">R</tspan><tspan class="cls-15" x="310.35" y="0">D</tspan><tspan class="cls-14" x="340.31" y="0">R</tspan><tspan class="cls-9" x="368.21" y="0">E</tspan><tspan class="cls-5" x="388.14" y="0">S</tspan><tspan class="cls-16" x="406.42" y="0">S</tspan><tspan class="cls-17" x="424.45" y="0">I</tspan><tspan class="cls-18" x="438.99" y="0">N</tspan><tspan class="cls-19" x="470.5" y="0">G</tspan></text><path class="cls-20" d="M108.83,308.54q0-3,9-16.08a8.11,8.11,0,0,1-.31-2.06c0-.62.52-1.35,1.56-2.18a4.62,4.62,0,0,1,2.37-1.25h.19q3.67-5,6.54-8.54c1.91-2.32,3-3.49,3.36-3.49a.88.88,0,0,1,.78.41,1.43,1.43,0,0,1,.28.84q-5,6.17-10.22,13.34l.13.43,2.24-.18A41.83,41.83,0,0,0,135,287.63a38,38,0,0,0,9.1-4.21q7.36-5,7.36-9.16c0-1.21-.81-2.22-2.43-3.05s-4.16-1.25-7.61-1.25-8.13.84-14,2.52S117.33,276,115,278c-.67.58-.9,1-.72,1.37s.22.52.1.56a.71.71,0,0,1-.56-.19,3.3,3.3,0,0,1-1.66-1.87,6.27,6.27,0,0,1-.34-1.68,1,1,0,0,1,.31-.81q2.06-3,9.2-5.64a62.88,62.88,0,0,1,13.18-3.49,72.12,72.12,0,0,1,8.94-.84,25.56,25.56,0,0,1,4.8.37,7.07,7.07,0,0,1,3.39,1.69,6.66,6.66,0,0,1,2.31,5.42,9.45,9.45,0,0,1-2.56,6.35,25.68,25.68,0,0,1-6.57,5.27,51,51,0,0,1-9.75,4.21,39.89,39.89,0,0,1-12.28,2.18q2,5,8,10.06t9.94,5.08a5,5,0,0,0,2.74-.75,2.7,2.7,0,0,0,1.37-1.87c0-.2.1-.26.31-.18a.56.56,0,0,1,.13.31c-.34,2.78-2.7,4.18-7.11,4.18a18.12,18.12,0,0,1-7.91-2,24.48,24.48,0,0,1-7-5,27.31,27.31,0,0,1-4.58-6.16q-6.62,9.59-8.17,13.52c-.25.66-.59,1-1,1S108.83,308.91,108.83,308.54Z"/><path class="cls-20" d="M159.21,294.56q4-2.16,4-4.41c0-1.49-.9-2.24-2.69-2.24a6.31,6.31,0,0,0-2.7.67,17.37,17.37,0,0,0-6,4.94c-2.4,2.89-3.59,5.58-3.59,8.07a4.91,4.91,0,0,0,.78,2.66,3.07,3.07,0,0,0,2.81,1.23q3.51,0,8.89-3.7a74.23,74.23,0,0,0,9.28-7.44c.6-.6.9-.62.9-.08a1.14,1.14,0,0,1-.45.9l-3.71,3.4q-.93.87-3.7,3.07a29.81,29.81,0,0,1-4.48,3.1q-5.31,2.77-9,2.77a9.19,9.19,0,0,1-5.83-1.68,5.62,5.62,0,0,1-2.13-4.68c0-4.23,1.89-7.89,5.68-10.95a18.67,18.67,0,0,1,11.89-4.6q4.2,0,5.61,1.79a3.39,3.39,0,0,1,.6,1.91,4.57,4.57,0,0,1-.67,2.21,11.11,11.11,0,0,1-5,4.07,16.39,16.39,0,0,1-7,1.76c-.85,0-1.31-.07-1.39-.22s0-.27.19-.34a2.28,2.28,0,0,1,.82-.11A15.72,15.72,0,0,0,159.21,294.56Z"/><path class="cls-20" d="M201.92,295.83a9.45,9.45,0,0,0-.38,2.51c0,.77.31,1.16.94,1.16s1.63-.57,3-1.72,2.31-1.95,2.76-2.39.68-.38.68.22a.81.81,0,0,1-.23.6,35.86,35.86,0,0,1-3.51,3.21,6.29,6.29,0,0,1-3.59,1.65c-1.6,0-2.5-.9-2.69-2.69q-7.19,8.44-11.45,8.45a5.64,5.64,0,0,1-3.85-1.12,3.25,3.25,0,0,1-1.23-2.4,15.27,15.27,0,0,1,.37-3.06q-6,6.57-9.8,6.58a5.65,5.65,0,0,1-3.89-1.16,3.46,3.46,0,0,1-1.27-2.58,8.23,8.23,0,0,1,1-4.34,39.83,39.83,0,0,1,3.29-4.34c-3.14,2.65-4.85,4.09-5.13,4.34s-.43.2-.48-.15a2,2,0,0,1,.82-1.42,61.08,61.08,0,0,0,5.65-5.23,28.43,28.43,0,0,1,5.31-4.64,5.57,5.57,0,0,1,2.39-.75,2.88,2.88,0,0,1,1.38.26c.3.18.38.37.23.56a25.58,25.58,0,0,0-4.27,6.14q-2.83,5.53-2.84,8.82a4.62,4.62,0,0,0,.08.9c.3.95,1.27.87,2.91-.23a19.28,19.28,0,0,0,2.06-1.6,60.23,60.23,0,0,0,5-6q3.86-4.93,5.42-5.76a5.9,5.9,0,0,1,2.55-.82,2.3,2.3,0,0,1,1.53.48c.37.33.46.59.26.79a21.19,21.19,0,0,0-5.16,10.4c-.3,1.74-.27,2.73.08,2.95a1.67,1.67,0,0,0,1,.3,3,3,0,0,0,1.15-.41q3-1.65,6.73-6.36c.16-4.68,1.18-8.08,3.07-10.17.8-1,2.34-1.5,4.64-1.5,1,0,1.44.3,1.34.9l-.44.75Q202.81,292.62,201.92,295.83Z"/><path class="cls-20" d="M235.05,294.71c-.55.65-1.11,1.35-1.69,2.1s-1.29,1.77-2.17,3.06a6.32,6.32,0,0,0-1.3,3.29c0,.9.38,1.35,1.15,1.35a9.45,9.45,0,0,0,3.78-1.42,64,64,0,0,0,11.59-9c.5-.49.83-.57,1-.22v.3a.81.81,0,0,1-.3.52q-12.87,12.12-18.7,12.12a3.91,3.91,0,0,1-2.88-1.16,3.74,3.74,0,0,1-1.16-2.73,14.09,14.09,0,0,1,1.35-4.79,27,27,0,0,1-7.22,6.47c-2.57,1.52-4.57,2.28-6,2.28a5.46,5.46,0,0,1-3.7-1.31,4.1,4.1,0,0,1-1.53-3.25q0-5.54,4.93-10.84a20.46,20.46,0,0,1,9.27-5.61,15.22,15.22,0,0,1,4.83-.82,8.83,8.83,0,0,1,4.56,1.3,5.89,5.89,0,0,1,2.8,3.11,3.45,3.45,0,0,1,3.22,1.64,1.41,1.41,0,0,1,.15.75,2,2,0,0,1-.56,1.2C236.06,293.52,235.59,294.07,235.05,294.71Zm-5.46-7.4a9.37,9.37,0,0,0-3.74,1,20.25,20.25,0,0,0-7.26,5.69q-5.46,6.42-5.46,9.42c0,1.05.43,1.57,1.27,1.57a8.76,8.76,0,0,0,3.48-1.35,32.6,32.6,0,0,0,6.4-5.31c.15-.15.72-.7,1.72-1.64s1.84-1.77,2.54-2.47q3.51-3.66,3.51-5.27C232.05,287.85,231.23,287.31,229.59,287.31Z"/><path class="cls-20" d="M265,291.27a64.67,64.67,0,0,0-5.35,7q-2.06,3.18-2.05,4.49c0,.87.51,1.31,1.53,1.31s3.11-1,6.28-3.07a59.68,59.68,0,0,0,8.79-6.88.79.79,0,0,1,.67-.3.37.37,0,0,1,.3.38,1.12,1.12,0,0,1-.3.67q-9.65,8.83-14.73,11.07a10.23,10.23,0,0,1-3.22.9q-3.58,0-4.9-1.2a3.52,3.52,0,0,1-1.3-2.62,7.1,7.1,0,0,1,1.12-4.33q3.66-5.16,5.83-8.75c.45-.7.36-1.19-.26-1.46a5.7,5.7,0,0,0-2.32-.41,5.89,5.89,0,0,1-1.46-.08,55.54,55.54,0,0,1-10,10.62c-.39.35-.62.35-.67,0a2.28,2.28,0,0,1,.82-1.42,47.65,47.65,0,0,0,8.61-9.5,1.41,1.41,0,0,1-.68-1.23c0-.52,0-1.16.11-1.91a8.69,8.69,0,0,1,1.16-3q1.8-3.14,3.74-3.14c1.1,0,1.65.6,1.65,1.79a9,9,0,0,1-2.32,5.39,9.24,9.24,0,0,1-2.09,1.94,27.59,27.59,0,0,1,8.07-.89,4,4,0,0,1,3.74,1.94,2.09,2.09,0,0,1,.15.9A3.46,3.46,0,0,1,265,291.27Z"/><path class="cls-20" d="M293.83,302.79a19.41,19.41,0,0,0-1.42,6.36,5.77,5.77,0,0,0,1,3.74c.15.19.18.33.08.41a.5.5,0,0,1-.23.11.59.59,0,0,1-.22-.08,7,7,0,0,1-2.39-5.79,30,30,0,0,1,1.57-8.86,43.53,43.53,0,0,1-6.06,6.5,11.39,11.39,0,0,1-7.33,3,7.24,7.24,0,0,1-4.49-1.6c-1.39-1.08-2.09-2.83-2.09-5.28a11.94,11.94,0,0,1,.67-4.11c-1,.9-1.63,1.45-1.91,1.65s-.46.2-.56,0a1.28,1.28,0,0,1-.15-.57c0-.17.17-.39.49-.67s2.06-2.1,5.2-5.5a19.7,19.7,0,0,1,6.58-4.78,17.59,17.59,0,0,1,7.25-1.72,7.78,7.78,0,0,1,4.6,1.08,3.31,3.31,0,0,1,1.46,2.73,120,120,0,0,1,5.8-10.8,53.09,53.09,0,0,1,4.82-7.07,6,6,0,0,1,4.71-2.09,6.77,6.77,0,0,1,4.64,1.57q-1.58,1-6.13,6.43t-8.9,11.7A58.72,58.72,0,0,0,293.83,302.79Zm.6-14.13c0-1-.63-1.5-1.88-1.5a7.6,7.6,0,0,0-2.54.6,18.4,18.4,0,0,0-6.95,5.23q-4.28,4.86-4.27,9.28c0,1.74.58,2.79,1.72,3.14a2,2,0,0,0,.75.15q3.08,0,9.13-6.14a17,17,0,0,0,2.76-3.36c.4-1.15.93-2.47,1.57-4q-.68.45-1.08.12c-.27-.23-.21-.72.19-1.5A4.58,4.58,0,0,0,294.43,288.66Z"/><path class="cls-20" d="M357.84,289.55q0,2.77-4.71,9.13-2.83,3.81-2.84,4.71c0,.6.31.89.93.89a5.55,5.55,0,0,0,2.66-1.12,65.13,65.13,0,0,0,8.52-7c.4-.39.68-.49.83-.3a.89.89,0,0,1,.22.45,10.72,10.72,0,0,1-1.64,1.72q-1.65,1.58-3.63,3.29a38.18,38.18,0,0,1-5,3.56,10.2,10.2,0,0,1-4.94,1.83q-4,0-4-3.59a12.05,12.05,0,0,1,.45-3q1-2.93,8.45-11.3a2.87,2.87,0,0,0,1-1.64c0-.4-.5-.6-1.49-.6s-2.57.87-4.71,2.62a27.3,27.3,0,0,0-2.77,2.65,31.29,31.29,0,0,0-3.85,5.65,43.78,43.78,0,0,0-3.26,6.88,1.75,1.75,0,0,1-1.79,1.35,4.8,4.8,0,0,1-.75-.08c-1-.25-1.32-.7-1.12-1.35q5.83-10.38,6.95-13a11.29,11.29,0,0,0,1.13-3.74c0-.74-.3-1.12-.9-1.12q-4,0-11.37,12.94a46.38,46.38,0,0,1-4.34,6,4.43,4.43,0,0,1-3,1.8h-.3a6,6,0,0,1-3.81-1.57c.3-.45,1-1.42,2.17-2.92a103.05,103.05,0,0,0,6.65-9,69.59,69.59,0,0,1-5.46,5c-.49.4-.78.42-.86.07a.94.94,0,0,1,.34-.93q.45-.42,1.5-1.35l1.38-1.23,1.27-1.16c.62-.58,1.09-1,1.39-1.39a28.72,28.72,0,0,0,3.06-4.19,4.1,4.1,0,0,0,.34-1.75,1.46,1.46,0,0,0-.38-1.12.63.63,0,0,1-.26-.64.53.53,0,0,1,.6-.6,1.82,1.82,0,0,1,.67.15q2.33,1.05,2.32,4.56a14.5,14.5,0,0,1-.82,4.57q1.5-2.32,3.22-4.57,3.06-4,6.13-4c1.39,0,2.09.8,2.09,2.39s-1.05,4.17-3.14,8q3.13-4.05,4.86-5.91c2.64-2.74,5.19-4.12,7.63-4.12s4.06,1.13,4.41,3.37Z"/><path class="cls-20" d="M380,294.56q4-2.16,4-4.41c0-1.49-.9-2.24-2.69-2.24a6.23,6.23,0,0,0-2.69.67,17.31,17.31,0,0,0-6.06,4.94q-3.58,4.34-3.59,8.07a4.83,4.83,0,0,0,.79,2.66,3.05,3.05,0,0,0,2.8,1.23q3.51,0,8.9-3.7a73.36,73.36,0,0,0,9.27-7.44c.6-.6.9-.62.9-.08a1.14,1.14,0,0,1-.45.9l-3.7,3.4c-.62.58-1.86,1.6-3.7,3.07a29.8,29.8,0,0,1-4.49,3.1q-5.31,2.77-9,2.77a9.17,9.17,0,0,1-5.83-1.68,5.61,5.61,0,0,1-2.14-4.68c0-4.23,1.9-7.89,5.69-10.95a18.65,18.65,0,0,1,11.89-4.6q4.19,0,5.61,1.79a3.39,3.39,0,0,1,.6,1.91,4.59,4.59,0,0,1-.68,2.21,11.06,11.06,0,0,1-5.05,4.07,16.32,16.32,0,0,1-7,1.76c-.85,0-1.31-.07-1.38-.22s0-.27.19-.34a2.25,2.25,0,0,1,.82-.11A15.76,15.76,0,0,0,380,294.56Z"/><g class="cls-21"><path class="cls-22" d="M250.39,0a82.44,82.44,0,1,0,82.43,82.43A82.43,82.43,0,0,0,250.39,0Zm0,160.88a78.45,78.45,0,1,1,78.44-78.45A78.44,78.44,0,0,1,250.39,160.88Z"/></g><g class="cls-23"><circle class="cls-24" cx="250.39" cy="82.43" r="80.44" transform="translate(95.48 295.72) rotate(-72.23)"/></g><polygon class="cls-25" points="221.86 119.56 222.63 118.4 230.51 123.62 230.99 122.9 223.1 117.68 223.87 116.52 231.76 121.74 232.23 121.02 224.34 115.8 225.11 114.64 233 119.86 233.47 119.14 225.58 113.93 226.35 112.77 234.24 117.98 234.72 117.27 226.82 112.05 227.59 110.89 235.48 116.11 235.96 115.39 228.06 110.17 228.83 109.01 236.72 114.23 237.2 113.51 229.31 108.3 230.07 107.14 237.97 112.36 238.44 111.64 230.55 106.42 231.32 105.26 239.21 110.48 239.68 109.76 231.79 104.54 232.56 103.38 240.45 108.6 240.92 107.89 233.03 102.66 233.8 101.51 241.69 106.72 242.16 106.01 234.27 100.79 235.04 99.63 242.93 104.85 243.4 104.13 235.51 98.91 236.28 97.75 244.17 102.97 244.65 102.25 236.76 97.03 237.52 95.88 245.41 101.09 245.89 100.38 238 95.16 238.76 94 246.66 99.22 247.13 98.5 239.24 93.28 240.01 92.12 247.9 97.34 248.37 96.62 240.48 91.4 241.25 90.24 249.14 95.47 249.61 94.75 241.72 89.53 242.49 88.37 250.38 93.59 250.85 92.87 242.96 87.65 243.73 86.49 251.62 91.71 252.09 90.99 244.21 85.77 244.97 84.61 252.86 89.83 253.34 89.11 245.44 83.9 246.21 82.74 254.1 87.96 254.58 87.24 246.69 82.02 247.45 80.86 255.34 86.08 255.82 85.36 247.93 80.14 248.7 78.98 256.58 84.2 257.06 83.48 249.17 78.27 249.94 77.11 257.83 82.33 258.3 81.61 250.41 76.39 251.18 75.23 259.07 80.45 259.54 79.73 251.65 74.51 252.42 73.35 260.31 78.57 260.78 77.85 252.89 72.64 253.66 71.48 261.55 76.69 262.03 75.98 254.14 70.76 254.9 69.6 262.79 74.82 263.27 74.1 255.38 68.88 256.14 67.72 264.04 72.94 264.51 72.22 256.62 67 257.39 65.84 265.28 71.06 265.75 70.35 257.86 65.13 258.63 63.97 266.52 69.19 266.99 68.47 259.1 63.25 259.87 62.09 267.76 67.31 268.23 66.59 260.34 61.37 261.11 60.21 269 65.43 269.48 64.72 261.58 59.5 262.35 58.34 270.24 63.55 270.72 62.84 262.83 57.62 263.59 56.46 271.48 61.68 271.96 60.96 264.07 55.74 264.83 54.58 272.72 59.8 273.2 59.08 265.31 53.87 266.08 52.7 273.97 57.93 274.44 57.21 266.55 51.99 267.32 50.83 275.21 56.05 275.68 55.33 267.79 50.11 268.56 48.95 276.45 54.17 276.92 53.45 269.03 48.24 269.8 47.08 277.69 52.3 278.17 51.58 270.27 46.36 271.04 45.2 278.93 50.42 279.41 49.7 271.51 44.48 272.28 43.32 280.17 48.54 280.65 47.82 272.76 42.6 273.53 41.45 281.41 46.66 281.89 45.95 274 40.73 274.77 39.57 282.66 44.79 283.13 44.07 275.24 38.85 276.01 37.69 283.9 42.91 285.06 41.16 275.85 35.07 219.62 120.09 228.82 126.18 229.75 124.78 221.86 119.56"/><rect class="cls-25" x="246.94" y="72.9" width="6.06" height="14.19"/><path class="cls-25" d="M300.59,116.15a6.44,6.44,0,0,0-11-6.45L256.93,83.53l-6.27-56h-.31v55h-.92V27.5h-.34l-7.26,56-32.47,26.08a6.48,6.48,0,1,0,1.09,1.82l39.46-14.66,38.69,14.7a6.43,6.43,0,0,0,11.45,5.69l5.06,2.68.54-1ZM204.43,119a5.27,5.27,0,1,1,4-8.66l.9,1.49a5.24,5.24,0,0,1-4.9,7.17Zm94.88-2.9a5.26,5.26,0,0,1-9.6-4.23l.78-1.44a5.26,5.26,0,0,1,8.82,5.67Z"/></g></g></svg>